<svg height="403" version="1.1" width="602" viewBox="0 0 602 403" xmlns="http://www.w3.org/2000/svg"><desc>Created by stuQuery SVG</desc><defs><clipPath id="shape"><path id="shape" d="M85,221L85,221L75,197C75,197,180,116,196,113L421,76C429,74,500,201,500,201L546,161L546,242L500,202C500,202,429,256,421,258L196,290C184,291,85,221,85,221"></path></clipPath></defs><path d="M85,221L85,221L75,197C75,197,180,116,196,113L421,76C429,74,500,201,500,201L546,161L546,242L500,202C500,202,429,256,421,258L196,290C184,291,85,221,85,221" stroke="0" fill="#D60303" clip-path="url(#shape)"></path><path d="M198.66,0l78.26,403M222.74,0l78.26,398.96999999999997M246.82,0l78.26,398.96999999999997M270.90000000000003,0l78.26,394.94M294.98,0l72.24,394.94" stroke-width="12.040000000000001" stroke="white" fill="white" opacity="0.6" clip-path="url(#shape)"></path><circle cx="168.16818880807622" cy="192.73783982815758" r="12.040000000000001" stroke="0" fill="white"></circle><circle cx="168.16818880807622" cy="192.73783982815758" r="9.03" stroke="0" fill="black"></circle></svg>